PathFileType	4	(X/Y/Z)	W16_1_OpenSim.trc																																																																																																																						
DataRate	CameraRate	NumFrames	NumMarkers	Units	OrigDataRate	OrigDataStartFrame	OrigNumFrames																																																																																																																		
100	100	7	40	mm	100	2626	3000																																																																																																																		
Frame#	Time	R.ASIS			R.PSIS			S2			L.PSIS			L.ASIS			R.TH1			R.TH2			R.TH3			R.MKnee			R.Knee			R.SH1			R.SH2			R.SH3			R.SH4			R.Ankle			R.MAnkle			R.Heel			R.MT5			R.MT1			L.TH1			L.TH2			L.TH3			L.TH4			L.MKnee			L.Knee			L.SH1			L.SH2			L.SH3			L.Ankle			L.MAnkle			L.Heel			L.MT5			L.MT1			R.Acr			L.Acr			C7			T10			Clav			Sternum			R.Back		
		X1	Y1	Z1	X2	Y2	Z2	X3	Y3	Z3	X4	Y4	Z4	X5	Y5	Z5	X6	Y6	Z6	X7	Y7	Z7	X8	Y8	Z8	X9	Y9	Z9	X10	Y10	Z10	X11	Y11	Z11	X12	Y12	Z12	X13	Y13	Z13	X14	Y14	Z14	X15	Y15	Z15	X16	Y16	Z16	X17	Y17	Z17	X18	Y18	Z18	X19	Y19	Z19	X20	Y20	Z20	X21	Y21	Z21	X22	Y22	Z22	X23	Y23	Z23	X24	Y24	Z24	X25	Y25	Z25	X26	Y26	Z26	X27	Y27	Z27	X28	Y28	Z28	X29	Y29	Z29	X30	Y30	Z30	X31	Y31	Z31	X32	Y32	Z32	X33	Y33	Z33	X34	Y34	Z34	X35	Y35	Z35	X36	Y36	Z36	X37	Y37	Z37	X38	Y38	Z38	X39	Y39	Z39	X40	Y40	Z40
2626	26.25	996.6941	1070.1239	-391.2707	799.4367	1070.7224	-480.7385	791.7941	1064.2472	-525.6567	791.4363	1068.1993	-575.7165	965.87	1063.8571	-684.2922	978.9084	735.6307	-375.3844	897.9342	731.9842	-362.7442	901.5855	622.9555	-379.6368	922.3989	504.8078	-512.5048	926.534	505.3513	-395.4019	913.8274	337.628	-397.8326	899.6776	228.1984	-420.2958	833.3321	345.832	-382.097	823.6957	233.4805	-396.8448	815.24	78.3134	-415.1567	852.6268	94.7144	-508.9426	755.187	39.239	-473.2724	927.8354	37.9071	-385.563	976.9805	39.3449	-473.9919	1044.2174	800.4414	-707.8006	1081.432	698.418	-708.4488	967.1556	768.8154	-716.0629	1008.0638	666.7605	-709.8638	1119.0071	538.5898	-595.6812	1100.4396	548.9453	-709.5294	1056.2304	420.0552	-727.0901	983.9816	458.8715	-722.2395	934.9099	360.8631	-717.6093	888.2447	161.6063	-724.3599	926.6619	155.8511	-629.151	816.6711	146.5682	-665.0211	968.437	76.408	-749.7328	1015.4917	71.1097	-652.0028	953.218	1474.1936	-382.1465	900.2487	1455.2289	-699.4005	872.2069	1503.1813	-537.3381	837.7808	1178.5474	-525.9723	1010.2404	1411.8812	-551.6151	1037.6211	1267.459	-543.0597	806.6755	1407.3463	-440.8285
2627	26.26	994.8693	1068.9053	-390.8133	797.8658	1069.9081	-481.217	790.3418	1063.4661	-526.1723	790.1187	1067.4679	-576.22	965.0841	1063.1931	-684.0919	971.9172	734.205	-375.5469	890.8872	732.1124	-362.5341	892.4233	623.0361	-379.4617	910.8692	504.2589	-512.4125	914.7039	504.8548	-395.3071	900.3618	337.2421	-397.7437	885.2533	227.9901	-420.2373	819.907	346.1869	-382.1974	809.2504	233.9281	-397.1332	799.3777	78.5869	-415.4838	837.0071	94.6153	-509.3341	739.3172	39.6234	-473.5608	911.8492	37.8286	-385.5698	960.9827	39.1945	-473.9459	1044.6459	801.4601	-707.9032	1082.7655	699.7418	-708.4031	967.9421	769.2841	-716.7933	1009.5845	667.5043	-710.4645	1121.4268	540.2297	-595.8985	1103.0592	550.2319	-709.3304	1065.7582	419.0205	-727.608	991.4095	453.0531	-722.2581	948.6898	352.1857	-717.8895	915.4508	149.8406	-725.8904	954.4957	145.709	-630.8136	845.2976	129.6827	-666.4095	1000.9154	70.2815	-752.1592	1048.608	66.9973	-654.8164	953.3271	1473.7823	-382.8643	898.7679	1453.7434	-699.9112	871.5311	1502.297	-537.6581	836.8008	1177.7985	-525.9115	1009.4939	1410.8758	-552.2862	1036.7788	1266.3501	-543.4368	806.4195	1406.8873	-440.3944
2628	26.27	993.2377	1067.3643	-390.513	796.5136	1068.9535	-481.6742	789.0889	1062.5519	-526.66	788.9719	1066.5958	-576.6966	964.3518	1062.149	-683.9961	965.0373	732.6496	-375.748	884.0014	732.0928	-362.3487	883.4282	622.9989	-379.355	899.466	503.6628	-512.3537	903.0381	504.3146	-395.2444	886.9683	336.8338	-397.6805	870.8926	227.7852	-420.1932	806.5385	346.5826	-382.3697	794.8175	234.4326	-397.4763	783.5424	78.8995	-415.8453	821.4194	94.5249	-509.7412	723.4788	40.0309	-473.8716	895.8665	37.7491	-385.5826	944.971	39.0327	-473.9104	1044.6401	801.7965	-708.0092	1083.4236	700.2962	-708.3502	968.214	769.2241	-717.485	1010.3411	667.6383	-711.0008	1122.9141	541.011	-596.0864	1104.8058	550.7497	-709.1213	1074.8387	417.7208	-728.1879	998.6211	446.6772	-722.5187	962.681	343.2766	-718.4866	943.6047	138.6068	-727.7196	982.9125	136.3307	-632.6863	875.1547	113.4612	-668.2451	1034.0521	65.0717	-754.4708	1082.0054	64.1289	-657.3789	953.4088	1473.0148	-383.6401	897.3503	1451.9098	-700.504	870.8971	1501.0801	-538.069	835.9147	1176.713	-525.9528	1008.8207	1409.5095	-553.0377	1036.0519	1264.8897	-543.836	806.1688	1406.057	-440.0933
2629	26.28	991.8138	1065.5214	-390.3908	795.392	1067.8628	-482.134	788.0516	1061.5083	-527.1456	788.0173	1065.5869	-577.1711	963.6939	1060.7251	-684.0054	958.3089	730.9608	-375.9896	877.3146	731.9209	-362.2058	874.6471	622.8416	-379.3197	888.2355	503.0212	-512.3342	891.5928	503.7185	-395.2196	873.6836	336.3942	-397.6423	856.6231	227.5789	-420.1708	793.2645	347.0235	-382.6073	780.4269	234.9996	-397.8603	767.7469	79.258	-416.2241	805.8634	94.4621	-510.1541	707.668	40.4809	-474.2013	879.8906	37.6704	-385.6003	928.9469	38.8689	-473.8841	1044.1906	801.4045	-708.1368	1083.3767	700.0306	-708.2888	967.9508	768.5918	-718.1077	1010.3119	667.1184	-711.4318	1123.4651	540.8919	-596.1977	1105.6964	550.4821	-708.8887	1083.4536	416.2334	-728.8038	1005.6234	439.8555	-723.0244	976.8494	334.3141	-719.3937	972.5754	128.2089	-729.7845	1011.7574	127.9786	-634.7012	906.0834	98.1738	-670.4565	1067.7305	61.106	-756.6169	1115.5164	62.7908	-659.6263	953.4669	1471.9128	-384.4708	895.9978	1449.7599	-701.1745	870.3025	1499.5452	-538.5731	835.136	1175.304	-526.0881	1008.2233	1407.8127	-553.8707	1035.4478	1263.12	-544.2726	805.9234	1404.8663	-439.9313
2630	26.29	990.5976	1063.3988	-390.4562	794.5046	1066.6316	-482.6233	787.2377	1060.3309	-527.6604	787.2696	1064.4364	-577.6739	963.1336	1058.929	-684.117	951.7766	729.1339	-376.2836	870.8711	731.5935	-362.1234	866.134	622.5617	-379.3526	877.2324	502.3354	-512.3633	880.4269	503.0573	-395.2464	860.5524	335.9163	-397.6341	842.4668	227.3633	-420.1875	780.1327	347.5111	-382.9011	766.1267	235.6269	-398.2697	751.996	79.6695	-416.6016	790.3417	94.4483	-510.5636	691.8808	41.0002	-474.5437	863.9238	37.5951	-385.623	912.9224	38.7152	-473.8667	1043.296	800.2404	-708.3078	1082.6186	698.9009	-708.2293	967.1474	767.3459	-718.648	1009.4974	665.9055	-711.7351	1123.0902	539.8559	-596.2001	1105.7715	549.4338	-708.6228	1091.5773	414.642	-729.4341	1012.4222	432.7203	-723.7515	991.119	325.495	-720.5707	1002.1627	118.9336	-731.9957	1040.8263	120.8819	-636.779	937.8696	84.0907	-672.9535	1101.7281	58.6946	-758.5549	1148.9009	63.2205	-661.522	953.5087	1470.5027	-385.3592	894.7166	1447.3297	-701.9167	869.7479	1497.7118	-539.171	834.4728	1173.5892	-526.3091	1007.7077	1405.821	-554.7779	1034.9615	1261.0819	-544.7634	805.6875	1403.3331	-439.912
2631	26.3	989.5806	1061.0194	-390.7081	793.8464	1065.2467	-483.1717	786.6448	1059.0075	-528.2375	786.7362	1063.1296	-578.2378	962.6926	1056.7793	-684.3258	945.4871	727.1663	-376.6504	864.7199	731.1088	-362.1164	857.9456	622.1572	-379.4535	866.5197	501.6081	-512.4539	869.5978	502.3266	-395.3431	847.6221	335.3983	-397.6706	828.4358	227.1243	-420.2707	767.198	348.0468	-383.2405	751.9757	236.3092	-398.6916	736.2911	80.1459	-416.9631	774.8622	94.505	-510.9608	676.1163	41.6214	-474.8913	847.9691	37.5257	-385.6511	896.9112	38.5839	-473.8597	1041.9797	798.2783	-708.5433	1081.1803	696.883	-708.1891	965.827	765.4587	-719.1152	1007.9304	663.9763	-711.9153	1121.8251	537.9227	-596.0813	1105.1063	547.635	-708.3174	1099.1752	413.0297	-730.0641	1019.0167	425.4205	-724.6466	1005.3727	317.019	-721.941	1032.0886	111.0233	-734.2419	1069.8569	115.2255	-638.8335	970.226	71.4671	-675.6237	1135.7113	58.0818	-760.2489	1181.8424	65.5778	-663.051	953.5438	1468.8137	-386.314	893.5176	1444.657	-702.7245	869.2388	1495.6051	-539.8621	833.9248	1171.5928	-526.6102	1007.2817	1403.5731	-555.7491	1034.5856	1258.8138	-545.3246	805.4702	1401.483	-440.0369
2632	26.31	988.7509	1058.4091	-391.1368	793.4015	1063.6886	-483.8102	786.2592	1057.5173	-528.9082	786.4153	1061.642	-578.8951	962.3865	1054.3066	-684.6262	939.4881	725.0629	-377.1147	858.9108	730.4669	-362.196	850.1375	621.6293	-379.6367	856.1648	500.8431	-512.6218	859.1606	501.5277	-395.5311	834.9413	334.8451	-397.7735	814.5391	226.8456	-420.4518	754.5263	348.6309	-383.6165	738.0308	237.0469	-399.1204	720.6398	80.7065	-417.3001	759.436	94.6544	-511.3366	660.3741	42.3817	-475.2352	832.0305	37.4651	-385.6857	880.9243	38.487	-473.8674	1040.3001	795.5283	-708.8599	1079.1383	693.9902	-708.1871	964.0535	762.9304	-719.5453	1005.6912	661.3367	-712.011	1119.7396	535.1561	-595.8477	1103.8186	545.1455	-707.9714	1106.2022	411.467	-730.6871	1025.3899	418.1092	-725.6264	1019.457	309.0644	-723.3928	1061.9895	104.6463	-736.3968	1098.5256	111.1345	-640.7731	1002.7731	60.522	-678.3273	1169.2405	59.3952	-761.6681	1213.9493	69.9071	-664.2127	953.5854	1466.8771	-387.3457	892.4156	1441.777	-703.5938	868.7853	1493.2557	-540.6474	833.4836	1169.3444	-526.9907	1006.9509	1401.1088	-556.7792	1034.3204	1256.3531	-545.9709	805.2837	1399.3495	-440.3066
